<mxfile host="app.diagrams.net" modified="2020-06-23T22:50:21.357Z" agent="5.0 (Windows NT 10.0; Win64; x64) AppleWebKit/537.36 (KHTML, like Gecko) Chrome/83.0.4103.106 Safari/537.36" etag="M6ek9dJkVDBHF7gbMKZl" version="13.3.0" type="github">
  <diagram id="tqd31nwlQ-2TjEg8psA1" name="Page-1">
    <mxGraphModel dx="1422" dy="762" grid="1" gridSize="10" guides="1" tooltips="1" connect="1" arrows="1" fold="1" page="1" pageScale="1" pageWidth="850" pageHeight="1100" math="0" shadow="0">
      <root>
        <mxCell id="0" />
        <mxCell id="1" parent="0" />
        <mxCell id="i_Of-E7rAh3jffyGFPfg-3" value="&lt;font style=&quot;font-size: 18px&quot;&gt;&amp;lt;&amp;lt; system &amp;gt;&amp;gt;&lt;br&gt;Database Record&lt;/font&gt;" style="rounded=0;whiteSpace=wrap;html=1;" parent="1" vertex="1">
          <mxGeometry x="307.5" y="110" width="172.5" height="90" as="geometry" />
        </mxCell>
        <mxCell id="i_Of-E7rAh3jffyGFPfg-5" value="&lt;font style=&quot;font-size: 18px&quot;&gt;&amp;lt;&amp;lt; system &amp;gt;&amp;gt;&lt;br&gt;GUI&lt;/font&gt;" style="rounded=0;whiteSpace=wrap;html=1;" parent="1" vertex="1">
          <mxGeometry x="90" y="390" width="150" height="100" as="geometry" />
        </mxCell>
        <mxCell id="i_Of-E7rAh3jffyGFPfg-7" value="&lt;font style=&quot;font-size: 18px&quot;&gt;Search/Sorting Functions&lt;/font&gt;" style="rounded=0;whiteSpace=wrap;html=1;" parent="1" vertex="1">
          <mxGeometry x="307.5" y="240" width="175" height="90" as="geometry" />
        </mxCell>
        <mxCell id="i_Of-E7rAh3jffyGFPfg-1" value="&lt;font size=&quot;3&quot;&gt;&amp;lt;&amp;lt; system &amp;gt;&amp;gt;&lt;br&gt;Antikythera System&lt;/font&gt;" style="rounded=0;whiteSpace=wrap;html=1;" parent="1" vertex="1">
          <mxGeometry x="310" y="390" width="170" height="100" as="geometry" />
        </mxCell>
        <mxCell id="i_Of-E7rAh3jffyGFPfg-12" value="" style="endArrow=none;html=1;" parent="1" edge="1">
          <mxGeometry width="50" height="50" relative="1" as="geometry">
            <mxPoint x="394" y="240" as="sourcePoint" />
            <mxPoint x="394" y="200" as="targetPoint" />
          </mxGeometry>
        </mxCell>
        <mxCell id="i_Of-E7rAh3jffyGFPfg-13" value="" style="endArrow=none;html=1;exitX=0.5;exitY=0;exitDx=0;exitDy=0;entryX=0.5;entryY=1;entryDx=0;entryDy=0;" parent="1" source="i_Of-E7rAh3jffyGFPfg-1" edge="1" target="i_Of-E7rAh3jffyGFPfg-7">
          <mxGeometry width="50" height="50" relative="1" as="geometry">
            <mxPoint x="440" y="380" as="sourcePoint" />
            <mxPoint x="490" y="330" as="targetPoint" />
          </mxGeometry>
        </mxCell>
        <mxCell id="i_Of-E7rAh3jffyGFPfg-14" value="" style="endArrow=none;html=1;exitX=1;exitY=0.5;exitDx=0;exitDy=0;" parent="1" source="i_Of-E7rAh3jffyGFPfg-5" edge="1">
          <mxGeometry width="50" height="50" relative="1" as="geometry">
            <mxPoint x="320" y="450" as="sourcePoint" />
            <mxPoint x="310" y="440" as="targetPoint" />
          </mxGeometry>
        </mxCell>
        <mxCell id="i_Of-E7rAh3jffyGFPfg-15" value="&lt;font size=&quot;3&quot;&gt;&amp;lt;&amp;lt; system &amp;gt;&amp;gt;&lt;br&gt;Physics Engine&lt;/font&gt;" style="rounded=0;whiteSpace=wrap;html=1;" parent="1" vertex="1">
          <mxGeometry x="550" y="540" width="160" height="100" as="geometry" />
        </mxCell>
        <mxCell id="i_Of-E7rAh3jffyGFPfg-18" value="&lt;font size=&quot;3&quot;&gt;Physics Functions&lt;/font&gt;" style="rounded=0;whiteSpace=wrap;html=1;" parent="1" vertex="1">
          <mxGeometry x="550" y="390" width="160" height="100" as="geometry" />
        </mxCell>
        <mxCell id="i_Of-E7rAh3jffyGFPfg-20" value="" style="endArrow=none;html=1;" parent="1" edge="1">
          <mxGeometry width="50" height="50" relative="1" as="geometry">
            <mxPoint x="480" y="440" as="sourcePoint" />
            <mxPoint x="550" y="440" as="targetPoint" />
          </mxGeometry>
        </mxCell>
        <mxCell id="i_Of-E7rAh3jffyGFPfg-21" value="" style="endArrow=none;html=1;exitX=0.5;exitY=0;exitDx=0;exitDy=0;entryX=0.5;entryY=1;entryDx=0;entryDy=0;" parent="1" source="i_Of-E7rAh3jffyGFPfg-15" edge="1" target="i_Of-E7rAh3jffyGFPfg-18">
          <mxGeometry width="50" height="50" relative="1" as="geometry">
            <mxPoint x="720" y="530" as="sourcePoint" />
            <mxPoint x="770" y="480" as="targetPoint" />
          </mxGeometry>
        </mxCell>
      </root>
    </mxGraphModel>
  </diagram>
</mxfile>
